<svg id="Layer_3" enable-background="new 0 0 64 64" height="512" viewBox="0 0 64 64" width="512" xmlns="http://www.w3.org/2000/svg"><g><path d="m62 31h-6c0-1.654-1.346-3-3-3v-2h4c2.206 0 4-1.794 4-4v-10c0-2.206-1.794-4-4-4h-16c-2.206 0-4 1.794-4 4v10c0 1.859 1.28 3.411 3 3.858v.142c0 .552-.449 1-1 1-1.654 0-3 1.346-3 3v1h-9v-5c0-2.602-1.43-4.872-3.542-6.078 2.177-.3 4.136-1.508 5.374-3.367.205-.307.224-.701.05-1.026-.174-.326-.513-.529-.882-.529-1.654 0-3-1.346-3-3v-1c0-1.93-.68-3.748-1.921-5.194l.891-3.564c.075-.299.007-.615-.182-.857-.189-.243-.48-.385-.788-.385h-12c-.308 0-.599.142-.788.385-.189.242-.257.559-.182.857l.891 3.564c-1.241 1.446-1.921 3.264-1.921 5.194v1c0 1.654-1.346 3-3 3-.369 0-.708.203-.882.528s-.155.72.05 1.026c1.238 1.858 3.198 3.066 5.374 3.367-2.112 1.207-3.542 3.477-3.542 6.079v5h-5c-.552 0-1 .447-1 1v30c0 .553.448 1 1 1h60c.552 0 1-.447 1-1v-30c0-.553-.448-1-1-1zm-8 0h-10c0-.552.449-1 1-1h8c.551 0 1 .448 1 1zm-3-3h-4v-2h4zm-12-6v-10c0-1.103.897-2 2-2h16c1.103 0 2 .897 2 2v10c0 1.103-.897 2-2 2h-16c-1.103 0-2-.897-2-2zm-1 8c0-.552.449-1 1-1 1.654 0 3-1.346 3-3h3v2c-1.654 0-3 1.346-3 3h-4zm-17-15c0 2.206-1.794 4-4 4s-4-1.794-4-4v-2c1.634 0 3.087-.788 4-2.003.913 1.215 2.366 2.003 4 2.003zm-7 6h3 3l-1.109 1.478-1.185-1.185c-.194-.195-.45-.293-.706-.293s-.512.098-.707.293l-1.185 1.185zm7.719-18-.5 2h-8.438l-.5-2zm-10.719 9v-1c0-1.495.547-2.898 1.537-4h4.463 4.463c.99 1.102 1.537 2.505 1.537 4v1c0 2.091 1.29 3.886 3.115 4.631-1.024.874-2.336 1.369-3.72 1.369h-.206c.512-.884.811-1.907.811-3v-3c0-.553-.448-1-1-1h-1c-1.654 0-3-1.346-3-3 0-.553-.448-1-1-1s-1 .447-1 1c0 1.654-1.346 3-3 3h-1c-.552 0-1 .447-1 1v3c0 1.093.299 2.116.812 3h-.206c-1.384 0-2.697-.495-3.721-1.369 1.825-.745 3.115-2.54 3.115-4.631zm-2 14c0-1.993 1.18-3.703 2.871-4.506l2.329 3.106c.174.232.44.377.729.397.291.028.574-.085.778-.29l1.293-1.293 1.293 1.293c.188.189.443.293.707.293.023 0 .047-.001.071-.003.289-.021.555-.165.729-.397l2.329-3.106c1.691.803 2.871 2.513 2.871 4.506v5h-2v-6h-2v6h-8v-6h-2v6h-2zm52 35h-58v-28h58z"/><path d="m32 59c6.617 0 12-5.383 12-12s-5.383-12-12-12-12 5.383-12 12 5.383 12 12 12zm0-22c5.514 0 10 4.486 10 10s-4.486 10-10 10-10-4.486-10-10 4.486-10 10-10z"/><path d="m29 50v4c0 .553.448 1 1 1h4c.552 0 1-.447 1-1v-4h4c.552 0 1-.447 1-1v-4c0-.553-.448-1-1-1h-4v-4c0-.553-.448-1-1-1h-4c-.552 0-1 .447-1 1v4h-4c-.552 0-1 .447-1 1v4c0 .553.448 1 1 1zm-3-4h4c.552 0 1-.447 1-1v-4h2v4c0 .553.448 1 1 1h4v2h-4c-.552 0-1 .447-1 1v4h-2v-4c0-.553-.448-1-1-1h-4z"/></g></svg>